<svg xmlns="http://www.w3.org/2000/svg" viewBox="0 0 128 40"><path d="M124 40H4c-2.2 0-4-1.8-4-4V4c0-2.2 1.8-4 4-4h120c2.2 0 4 1.8 4 4v32c0 2.2-1.8 4-4 4z"/><linearGradient id="a" gradientUnits="userSpaceOnUse" x1="16.258" y1="28.576" x2="21.856" y2="51.567" gradientTransform="translate(0 -22)"><stop offset="0" stop-color="#006884"/><stop offset="1" stop-color="#8ad1d0"/></linearGradient><path d="M9.8 19.6V9.1c0-.6.5-1.1 1-1.1s.7.1 1 .3l19.3 10.6c.4.2.6.5.6.8s-.2.6-.6.8L11.8 31.1c-.2.1-.5.3-1 .3s-1-.5-1-1.1V19.6z" fill="url(#a)"/><linearGradient id="b" gradientUnits="userSpaceOnUse" x1="9.426" y1="31.87" x2="24.682" y2="40.118" gradientTransform="translate(0 -22)"><stop offset="0" stop-color="#24bbb6"/><stop offset="1" stop-color="#dbe692"/></linearGradient><path d="M22.3 19.7 10.6 8h.2c.5 0 .7.1 1 .3L26 16.1l-3.7 3.6z" fill="url(#b)"/><linearGradient id="c" gradientUnits="userSpaceOnUse" x1="27" y1="45.62" x2="27" y2="37.672" gradientTransform="translate(0 -22)"><stop offset="0" stop-color="#fcc072"/><stop offset="1" stop-color="#f58a5b"/></linearGradient><path d="m25.9 23.2-3.6-3.6 3.7-3.7 5.1 2.8c.4.2.6.5.6.8s-.2.6-.6.8l-5.2 2.9z" fill="url(#c)"/><linearGradient id="d" gradientUnits="userSpaceOnUse" x1="12.365" y1="55.24" x2="24.417" y2="42.975" gradientTransform="translate(0 -22)"><stop offset="0" stop-color="#712b8f"/><stop offset="1" stop-color="#ea1d27"/></linearGradient><path d="m10.7 31.2 11.6-11.6 3.6 3.6-14.1 7.7c-.3.2-.5.3-1.1.3.1 0 .1 0 0 0z" fill="url(#d)"/><path d="M71.1 33.9c-.5-.4-.9-1.1-1.1-1.5l1.6-.7c.1.2.3.5.5.8.4.4 1 .8 1.6.8s1.3-.3 1.7-.8c.3-.5.5-1 .5-1.7v-.6c-1.2 1.5-3.7 1.3-5.1-.3-1.5-1.6-1.5-4.3 0-5.9 1.5-1.5 3.7-1.7 5-.3V23h1.7v7.5c0 1.9-.7 3-1.6 3.7-.6.5-1.5.7-2.3.7-.9-.1-1.8-.4-2.5-1zm41.9.4 1.7-4-3-6.9h1.7l2.1 4.9 2.1-4.9h1.7l-4.6 10.9H113zm-8.1-3.8c-.5-.5-.7-1.2-.7-1.9 0-.6.2-1.2.6-1.6.7-.7 1.7-1 2.8-1 .7 0 1.3.1 1.8.4 0-1.2-1-1.7-1.8-1.7-.7 0-1.4.4-1.7 1.1l-1.5-.6c.3-.7 1.1-2 3.1-2 1 0 2 .3 2.6 1s.8 1.5.8 2.6V31h-1.7v-.7c-.2.3-.6.5-.9.7-.4.2-.9.3-1.4.3-.6-.1-1.5-.3-2-.8zm-53.3-3.6c0-2 1.5-4.2 4.2-4.2 2.6 0 4.2 2.2 4.2 4.2s-1.5 4.2-4.2 4.2-4.2-2.2-4.2-4.2zm9 0c0-2 1.5-4.2 4.2-4.2 2.6 0 4.2 2.2 4.2 4.2s-1.5 4.2-4.2 4.2c-2.6 0-4.2-2.2-4.2-4.2zm-20.3 2.2c-2.5-2.5-2.4-6.6.1-9.2 1.3-1.3 2.9-1.9 4.6-1.9 1.6 0 3.2.6 4.4 1.8l-1.2 1.3c-1.8-1.8-4.7-1.7-6.4.1-1.8 1.9-1.8 4.8 0 6.7s4.8 2 6.6.1c.6-.6.8-1.4.9-2.2h-4.2V24H51c.1.4.1.9.1 1.4 0 1.5-.6 3-1.6 4-1.1 1.1-2.7 1.7-4.3 1.7-1.8-.1-3.6-.7-4.9-2zm42.3.7c-1.5-1.6-1.5-4.3 0-6 1.5-1.6 4-1.6 5.4 0 .5.5.8 1.2 1.1 1.9L83.6 28c.3.7 1 1.3 2 1.3.9 0 1.5-.3 2.1-1.2l1.5 1c-.2.2-.4.4-.5.6-1.7 1.7-4.6 1.7-6.1.1zM93 31V19.9h3.6c2.1 0 3.8 1.5 3.8 3.3s-1.5 3.3-3.4 3.3h-2.2v4.4H93v.1zm8.4 0V19.9h1.7V31h-1.7zm-22.6-.2V18.4h1.8v12.4h-1.8zm30.5-3.1c-.4-.3-1-.4-1.6-.4-1.2 0-1.9.6-1.9 1.3s.7 1.1 1.4 1.1c1 0 2.1-.8 2.1-2zm-51.2-.8c0-1.2-.8-2.5-2.3-2.5s-2.3 1.3-2.3 2.5.8 2.5 2.3 2.5c1.4 0 2.3-1.3 2.3-2.5zm9 0c0-1.2-.8-2.5-2.3-2.5s-2.3 1.3-2.3 2.5.8 2.5 2.3 2.5 2.3-1.3 2.3-2.5zm8.9.7c0-.1 0-.2.1-.3v-.9c0-.1-.1-.3-.1-.4-.3-1-1.2-1.7-2.1-1.7-1.2 0-2.2 1.2-2.2 2.5 0 1.4 1 2.5 2.3 2.5.8.1 1.6-.6 2-1.7zm7.3-.9 3.7-1.6c-.4-.7-1-.9-1.5-.9-1.5.1-2.4 1.7-2.2 2.5zm15.3-3.4c0-1-.8-1.7-1.9-1.7h-2v3.5h2.1c1 0 1.8-.8 1.8-1.8z" fill="#FFF"/><path fill="#FFF" d="M114.3 32.3h-.1v-.1h.1-.1v.1zm0 0c0-.1 0-.1 0 0 0-.1 0-.1 0 0zm0-.1zm0 .1v-.1zm0 0zm0-.1zm0 0v.1zm0 .1v-.1zm0 0c0-.1 0-.1 0 0zm0 0c0-.1 0-.1 0 0zm.1 0c0-.1 0-.1 0 0 0-.1 0-.1 0 0 0-.1 0-.1 0 0zm0-.1zm0 .1c0-.1 0-.1 0 0zm0-.1v.1zm0 .1v-.1zm0 0c0-.1 0-.1 0 0 0-.1 0-.1 0 0zm0-.1c0 .1 0 .1 0 0 0 .1 0 .1 0 0zm0 .1c0-.1 0-.1 0 0 0-.1 0-.1 0 0 0-.1 0-.1 0 0 0-.1 0-.1 0 0zm.1 0c0-.1 0-.1 0 0-.1-.1-.1-.1 0 0-.1 0-.1 0 0 0zm0-.1c0 .1 0 .1 0 0 0 .1-.1.1 0 0-.1 0 0 0 0 0zm0 .1v-.1.1-.1.1-.1zm0 0zm0-.1zm0 .1c0-.1 0-.1 0 0 0-.1 0-.1 0 0 0-.1 0-.1 0 0 0-.1 0-.1 0 0 0-.1 0-.1 0 0 0-.1 0-.1 0 0 0-.1 0-.1 0 0 0-.1 0-.1 0 0zm.1-.1h-.1.1v.1zm0 .1v-.1zm0 0c0-.1 0-.1 0 0 0-.1 0-.1 0 0zm0-.1zM42.085 10.01h2.337v.187c0 .425-.05.8-.15 1.128a2.418 2.418 0 0 1-.494.85c-.525.59-1.192.887-2.003.887-.79 0-1.47-.286-2.033-.857a2.844 2.844 0 0 1-.846-2.065c0-.82.287-1.516.86-2.087.574-.574 1.272-.86 2.095-.86.443 0 .855.09 1.24.27.365.182.726.475 1.08.88l-.608.582c-.464-.617-1.03-.927-1.696-.927-.598 0-1.1.207-1.505.62-.404.404-.606.912-.606 1.522 0 .63.226 1.15.677 1.557.424.38.882.567 1.375.567a1.7 1.7 0 0 0 1.13-.425c.336-.286.522-.628.562-1.026h-1.41v-.804zm6.53-1.908h-2.267V9.46h2.2v.803h-2.2v1.89h2.267v.802h-3.12V7.3h3.12v.802zm2.68 0v4.853h-.853V8.102h-1.3V7.3h3.45v.802h-1.297zM56.52 7.3v5.654h-.853V7.3h.854zm2.92.802v4.853h-.854V8.102h-1.3V7.3h3.45v.802h-1.297zm4.09 2c0-.796.292-1.48.875-2.05a2.879 2.879 0 0 1 2.095-.858c.806 0 1.497.288 2.073.864a2.83 2.83 0 0 1 .868 2.076 2.78 2.78 0 0 1-.87 2.07 2.916 2.916 0 0 1-2.114.853c-.73 0-1.385-.253-1.966-.758-.64-.56-.96-1.293-.96-2.198zm.86.01c0 .626.21 1.14.63 1.543.42.402.9.604 1.448.604a2.03 2.03 0 0 0 1.5-.616c.41-.415.612-.92.612-1.517 0-.603-.2-1.108-.604-1.517-.4-.41-.896-.615-1.487-.615a2.01 2.01 0 0 0-1.49.615c-.406.407-.61.907-.61 1.503zm6.125 2.843v-6.04l4.123 4.315V7.3h.854v5.998L71.37 8.995v3.96h-.855z"/></svg>