<!DOCTYPE svg PUBLIC "-//W3C//DTD SVG 1.1//EN" "http://www.w3.org/Graphics/SVG/1.1/DTD/svg11.dtd">
<!-- Uploaded to: SVG Repo, www.svgrepo.com, Transformed by: SVG Repo Mixer Tools -->
<svg width="800px" height="800px" viewBox="0 0 24 24" fill="none" xmlns="http://www.w3.org/2000/svg">
<g id="SVGRepo_bgCarrier" stroke-width="0"/>
<g id="SVGRepo_tracerCarrier" stroke-linecap="round" stroke-linejoin="round"/>
<g id="SVGRepo_iconCarrier"> <path d="M9 5H7C5.89543 5 5 5.89543 5 7V19C5 20.1046 5.89543 21 7 21H17C18.1046 21 19 20.1046 19 19V7C19 5.89543 18.1046 5 17 5H15" stroke="#000000" stroke-width="2" stroke-linecap="round" stroke-linejoin="round"/> <path d="M12 12H15" stroke="#000000" stroke-width="2" stroke-linecap="round" stroke-linejoin="round"/> <path d="M12 16H15" stroke="#000000" stroke-width="2" stroke-linecap="round" stroke-linejoin="round"/> <path d="M9 5C9 3.89543 9.89543 3 11 3H13C14.1046 3 15 3.89543 15 5V7H9V5Z" stroke="#000000" stroke-width="2" stroke-linecap="round" stroke-linejoin="round"/> <circle cx="9" cy="12" r="1" fill="#000000"/> <circle cx="9" cy="16" r="1" fill="#000000"/> </g>
</svg>