<!DOCTYPE svg PUBLIC "-//W3C//DTD SVG 1.1//EN" "http://www.w3.org/Graphics/SVG/1.1/DTD/svg11.dtd">

<!-- Uploaded to: SVG Repo, www.svgrepo.com, Transformed by: SVG Repo Mixer Tools -->
<svg fill="#1e40af" height="800px" width="800px" version="1.1" id="Capa_1" xmlns="http://www.w3.org/2000/svg" xmlns:xlink="http://www.w3.org/1999/xlink" viewBox="0 0 461.136 461.136" xml:space="preserve">

<g id="SVGRepo_bgCarrier" stroke-width="0"/>

<g id="SVGRepo_tracerCarrier" stroke-linecap="round" stroke-linejoin="round"/>

<g id="SVGRepo_iconCarrier"> <g id="XMLID_476_"> <path id="XMLID_477_" d="M105.9,74.509c-0.402-1.99-2.342-3.278-4.332-2.876L64.34,79.155c-1.99,0.402-3.278,2.342-2.876,4.332 l11.04,54.643c0.402,1.991,2.342,3.278,4.332,2.876l2.609-0.527c0.811-4.095,2.3-8.125,4.531-11.923 c6.173-10.512,17.07-17.416,29.068-18.684L105.9,74.509z"/> <circle id="XMLID_509_" cx="268.807" cy="37.954" r="37.954"/> <path id="XMLID_902_" d="M399.745,309.694c0-6.936-5.622-12.558-12.558-12.558h-13.801v-32.074c0-4.623-3.747-8.371-8.371-8.371 h-2.987c-0.006-1.253-0.624-124.309-0.631-125.565c-0.119-23.776-19.56-43.12-43.337-43.12c-3.225,0-26.176,0-98.509,0 c-23.777,0-43.218,19.343-43.338,43.12c-0.047,9.339-0.008,1.635-0.152,30.268l-49.776-29.23 c-7.996-4.696-18.526-2.727-24.148,5.123c-6.376,8.911-3.548,21.087,5.601,26.46c82.579,48.493,77.43,45.496,78.293,45.927 c12.033,6.025,26.423-2.637,26.496-16.291c0.052-10.362,0.277-54.973,0.313-62.073c0-0.001,0-0.001,0-0.002 c0.011-2.003,1.64-3.619,3.643-3.614c2.003,0.005,3.623,1.631,3.623,3.634c0,55.23,0.008,303.075,0.008,307.831 c0,12.137,9.839,21.976,21.976,21.976c12.137,0,21.976-9.839,21.976-21.976v-170.91c0-2.62,2.124-4.745,4.745-4.745 c2.62,0,4.745,2.124,4.745,4.745v22.396c4.758-6.869,12.084-11.83,20.581-13.474v-12.666c0-13.67,9.795-25.299,22.971-27.849 c0-21.025-0.032-84.498-0.043-105.325c-0.001-2.125,1.718-3.85,3.842-3.856c2.125-0.007,3.854,1.708,3.866,3.832 c0,0.001,0,0.001,0,0.001c0.006,1.217,0.626,124.565,0.63,125.382h-2.896c-4.623,0-8.371,3.747-8.371,8.371v32.074h-13.801 c-6.935,0-12.558,5.622-12.558,12.558v118.465c0,6.936,5.622,12.558,12.558,12.558h0.426v10.42c0,5.523,4.477,10,10,10 c5.523,0,10-4.477,10-10v-10.42h46v10.42c0,5.523,4.477,10,10,10c5.523,0,10-4.477,10-10v-10.42h0.426 c6.936,0,12.558-5.622,12.558-12.558V309.694z M356.645,297.136h-25.767v-18.366c7.136,7.065,18.62,7.073,25.767-0.008V297.136z"/> </g> </g>

</svg>