<!DOCTYPE svg PUBLIC "-//W3C//DTD SVG 1.1//EN" "http://www.w3.org/Graphics/SVG/1.1/DTD/svg11.dtd">

<!-- Uploaded to: SVG Repo, www.svgrepo.com, Transformed by: SVG Repo Mixer Tools -->
<svg width="800px" height="800px" viewBox="0 0 48 48" fill="none" xmlns="http://www.w3.org/2000/svg">

<g id="SVGRepo_bgCarrier" stroke-width="0"/>

<g id="SVGRepo_tracerCarrier" stroke-linecap="round" stroke-linejoin="round"/>

<g id="SVGRepo_iconCarrier"> <g id="credit card"> <g id="credit card_2"> <path id="Combined Shape" fill-rule="evenodd" clip-rule="evenodd" d="M7 38H41C42.6568 38 44 36.6577 44 35V17V13C44 11.3423 42.6568 10 41 10H7C5.34318 10 4 11.3423 4 13V35C4 36.6577 5.34318 38 7 38ZM42 18V35C42 35.5529 41.5526 36 41 36H7C6.44744 36 6 35.5529 6 35V13C6 12.4471 6.44744 12 7 12H41C41.5526 12 42 12.4471 42 13V16H9C8.44772 16 8 16.4477 8 17C8 17.5523 8.44772 18 9 18H42ZM34 31H30C29.4474 31 29 30.5529 29 30V28C29 27.4471 29.4474 27 30 27H36C36.5526 27 37 27.4471 37 28V30C37 30.5523 37.4477 31 38 31C38.5523 31 39 30.5523 39 30V28C39 26.3423 37.6568 25 36 25H30C28.3432 25 27 26.3423 27 28V30C27 31.6577 28.3432 33 30 33H34C34.5523 33 35 32.5523 35 32C35 31.4477 34.5523 31 34 31Z" fill="#1e40af"/> </g> </g> </g>

</svg>